# xmcd
#
# Track frame offsets: 
#        150
#        14723
#        31108
#        57529
#        69313
#        86850
#        103806
#        114520
#        126639
#        143384
#        158185
#
# Disc length: 2274 seconds
#
# Revision: 0
# Processed by: cddbd v1.5.2PL0 Copyright (c) Steve Scherf et al.
# Submitted via: ExactAudioCopy v1.0b3
#
DISCID=9a08e00b
DTITLE=Tracy Nelson - You`ll Never Be A Stranger At My Door
DYEAR=2007
DGENRE=Country
TTITLE0=Cow Cow Boogie
TTITLE1=Four Walls
TTITLE2=Salt Of The Earth
TTITLE3=I Still Miss Someone
TTITLE4=New Way Out
TTITLE5=Stranger At My Door
TTITLE6=I Wonder If I Care As Much
TTITLE7=Thanks A Lot
TTITLE8=Three Bells
TTITLE9=I Never Loved Anyone More
TTITLE10=Oh Lonesome Me
EXTD=
EXTT0=
EXTT1=
EXTT2=
EXTT3=
EXTT4=
EXTT5=
EXTT6=
EXTT7=
EXTT8=
EXTT9=
EXTT10=
PLAYORDER=
